# xmcd
#
# Track frame offsets:
# 150
# 12509
# 26784
# 40193
# 54402
# 70856
# 84339
# 95340
# 107855
# 122211
# 132424
# 141822
# 154799
# 169061
#
# Disc length: 2446 seconds
#
# Revision: 0
# Processed by: cddbd v1.5.2PL0 Copyright (c) Steve Scherf et al.
# Submitted via: Audion 3.0.2 (http://www.panic.com/audion/)
#
DISCID=bc098c0e
DTITLE=Delta Generators - Hard River To Row
DYEAR=1900
DGENRE=
TTITLE0=Hard River To Row
TTITLE1=Too  Many Cooks
TTITLE2=Field and Plow
TTITLE3=Canebrake
TTITLE4=Someday
TTITLE5=Give Me Some
TTITLE6=Let The Boy Down Easy
TTITLE7=Don't Uncork the Bottle
TTITLE8=Love You Tight
TTITLE9=Hardly Working
TTITLE10=Follow You Down
TTITLE11=Reverend's Daughter
TTITLE12=Coming Home
TTITLE13=Hard River Blues
EXTD=
EXTT0=
EXTT1=
EXTT2=
EXTT3=
EXTT4=
EXTT5=
EXTT6=
EXTT7=
EXTT8=
EXTT9=
EXTT10=
EXTT11=
EXTT12=
EXTT13=
PLAYORDER=
